<?xml version="1.0" encoding="UTF-8"?>
<svg width="40" height="40" version="1.1" viewBox="0 0 1200 1200" xmlns="http://www.w3.org/2000/svg">
 <path d="m246 1190.4h2.3984l116.4-118.8 114 118.8h1.1992l123.6-118.8 121.2 118.8h1.1992l118.8-118.8 115.2 118.8h1.1992l225.6-228-118.8-116.4 118.8-118.8-118.8-122.4 118.8-124.8-118.8-114 118.8-117.6-214.8-235.2-124.8 118.8-121.2-118.8-118.8 118.8-116.4-118.8-117.6 118.8-115.2-118.8-246 235.2 118.8 117.6-118.8 114 118.8 124.8-118.8 122.4 118.8 118.8-118.8 116.4z"/>
</svg>
